<svg width="160" height="160" viewBox="0 0 160 160" fill="none" xmlns="http://www.w3.org/2000/svg">
<g clip-path="url(#clip0_237_2343)">
<path fill-rule="evenodd" clip-rule="evenodd" d="M47.6061 79.762H66.4779H79.7703L66.4807 119.647H98.6338L111.926 79.762H79.7703L93.0626 39.8769H139.635C142.794 39.8781 145.908 40.6301 148.72 42.071C151.532 43.5118 153.961 45.6002 155.807 48.1641C157.648 50.7297 158.853 53.6962 159.323 56.8191C159.792 59.9419 159.512 63.1316 158.507 66.1251L131.922 145.887C130.599 149.859 128.06 153.313 124.663 155.761C121.267 158.208 117.187 159.525 113.001 159.524H53.1774L66.4752 119.655H19.9467C16.786 119.655 13.6706 118.904 10.8573 117.463C8.04399 116.023 5.61323 113.935 3.76539 111.37C1.91755 108.806 0.705532 105.839 0.229185 102.715C-0.247161 99.5904 0.0257973 96.3973 1.02561 93.399L27.6184 13.6369C28.9389 9.66532 31.4766 6.21044 34.8715 3.7626C38.2663 1.31475 42.3459 -0.00171718 46.5313 1.68105e-06H106.347L93.0544 39.8769H60.8985L47.6061 79.762Z" fill="#3DDC91"/>
</g>
<defs>
<clipPath id="clip0_237_2343">
<rect width="160" height="160" fill="white"/>
</clipPath>
</defs>
</svg>
